<svg width="599" height="146" viewBox="0 0 599 146" fill="none" xmlns="http://www.w3.org/2000/svg">
<g clip-path="url(#clip0)">
<path d="M247 104.688C248.28 105.904 248.92 107.28 248.92 108.816C248.92 110.288 248.376 111.6 247.288 112.752C246.264 113.904 245.048 114.48 243.64 114.48C242.232 114.48 240.92 113.904 239.704 112.752L217.24 92.4V108.816C217.24 110.672 216.664 112.08 215.512 113.04C214.36 114 212.92 114.48 211.192 114.48C209.464 114.48 208.024 114 206.872 113.04C205.784 112.08 205.24 110.672 205.24 108.816V51.504C205.24 49.648 205.784 48.24 206.872 47.28C208.024 46.32 209.464 45.84 211.192 45.84C212.92 45.84 214.36 46.32 215.512 47.28C216.664 48.24 217.24 49.648 217.24 51.504V87.6L237.784 67.92C238.936 66.768 240.248 66.192 241.72 66.192C243.192 66.192 244.472 66.736 245.56 67.824C246.648 68.912 247.192 70.192 247.192 71.664C247.192 73.136 246.584 74.48 245.368 75.696L230.296 89.712L247 104.688ZM262.661 114.576C260.933 114.576 259.493 114.096 258.341 113.136C257.253 112.112 256.709 110.672 256.709 108.816V71.76C256.709 69.904 257.253 68.496 258.341 67.536C259.493 66.576 260.933 66.096 262.661 66.096C264.389 66.096 265.829 66.576 266.981 67.536C268.133 68.496 268.709 69.904 268.709 71.76V108.816C268.709 110.672 268.133 112.112 266.981 113.136C265.829 114.096 264.389 114.576 262.661 114.576ZM262.661 57.552C260.485 57.552 258.757 56.976 257.477 55.824C256.197 54.608 255.557 53.04 255.557 51.12C255.557 49.2 256.197 47.664 257.477 46.512C258.757 45.36 260.485 44.784 262.661 44.784C264.773 44.784 266.469 45.36 267.749 46.512C269.093 47.664 269.765 49.2 269.765 51.12C269.765 53.04 269.125 54.608 267.845 55.824C266.565 56.976 264.837 57.552 262.661 57.552ZM308.348 65.904C313.98 65.904 318.172 67.504 320.924 70.704C323.676 73.904 325.052 78.736 325.052 85.2V108.816C325.052 110.608 324.508 112.016 323.42 113.04C322.396 114.064 320.956 114.576 319.1 114.576C317.244 114.576 315.772 114.064 314.684 113.04C313.596 112.016 313.052 110.608 313.052 108.816V85.872C313.052 82.224 312.348 79.568 310.94 77.904C309.596 76.24 307.452 75.408 304.508 75.408C301.052 75.408 298.268 76.496 296.156 78.672C294.108 80.848 293.084 83.76 293.084 87.408V108.816C293.084 110.608 292.54 112.016 291.452 113.04C290.364 114.064 288.892 114.576 287.036 114.576C285.18 114.576 283.708 114.064 282.62 113.04C281.596 112.016 281.084 110.608 281.084 108.816V71.664C281.084 70 281.628 68.656 282.716 67.632C283.804 66.608 285.276 66.096 287.132 66.096C288.796 66.096 290.14 66.608 291.164 67.632C292.252 68.592 292.796 69.872 292.796 71.472V74.064C294.396 71.44 296.54 69.424 299.228 68.016C301.916 66.608 304.956 65.904 308.348 65.904ZM364.216 65.904C368.312 65.904 371.928 66.896 375.064 68.88C378.2 70.864 380.632 73.68 382.36 77.328C384.152 80.976 385.048 85.232 385.048 90.096C385.048 94.96 384.152 99.28 382.36 103.056C380.632 106.768 378.168 109.648 374.968 111.696C371.832 113.744 368.248 114.768 364.216 114.768C360.824 114.768 357.784 114.032 355.096 112.56C352.472 111.088 350.456 109.04 349.048 106.416V108.816C349.048 110.544 348.504 111.92 347.416 112.944C346.328 113.968 344.888 114.48 343.096 114.48C341.304 114.48 339.864 113.968 338.776 112.944C337.752 111.92 337.24 110.544 337.24 108.816V51.408C337.24 49.744 337.784 48.4 338.872 47.376C340.024 46.352 341.496 45.84 343.288 45.84C345.08 45.84 346.52 46.32 347.608 47.28C348.696 48.24 349.24 49.552 349.24 51.216V73.872C350.648 71.312 352.664 69.36 355.288 68.016C357.912 66.608 360.888 65.904 364.216 65.904ZM361.048 105.456C364.824 105.456 367.768 104.112 369.88 101.424C371.992 98.736 373.048 94.96 373.048 90.096C373.048 85.296 371.992 81.616 369.88 79.056C367.832 76.496 364.888 75.216 361.048 75.216C357.208 75.216 354.232 76.528 352.12 79.152C350.072 81.712 349.048 85.424 349.048 90.288C349.048 95.152 350.072 98.896 352.12 101.52C354.232 104.144 357.208 105.456 361.048 105.456ZM416.304 114.768C411.504 114.768 407.28 113.776 403.632 111.792C400.048 109.808 397.264 106.96 395.28 103.248C393.296 99.536 392.304 95.216 392.304 90.288C392.304 85.36 393.296 81.072 395.28 77.424C397.264 73.712 400.048 70.864 403.632 68.88C407.28 66.896 411.504 65.904 416.304 65.904C421.104 65.904 425.296 66.896 428.88 68.88C432.528 70.864 435.312 73.712 437.232 77.424C439.216 81.072 440.208 85.36 440.208 90.288C440.208 95.216 439.216 99.536 437.232 103.248C435.312 106.96 432.528 109.808 428.88 111.792C425.296 113.776 421.104 114.768 416.304 114.768ZM416.208 105.456C420.112 105.456 423.088 104.176 425.136 101.616C427.184 99.056 428.208 95.28 428.208 90.288C428.208 85.36 427.184 81.616 425.136 79.056C423.088 76.432 420.144 75.12 416.304 75.12C412.464 75.12 409.488 76.432 407.376 79.056C405.328 81.616 404.304 85.36 404.304 90.288C404.304 95.28 405.328 99.056 407.376 101.616C409.424 104.176 412.368 105.456 416.208 105.456ZM489.882 105.168C491.034 106.32 491.61 107.632 491.61 109.104C491.61 110.512 491.066 111.792 489.978 112.944C488.89 114.032 487.61 114.576 486.138 114.576C484.538 114.576 483.162 113.904 482.01 112.56L468.474 97.584L454.938 112.56C453.722 113.84 452.346 114.48 450.81 114.48C449.402 114.48 448.154 113.936 447.066 112.848C445.978 111.76 445.434 110.512 445.434 109.104C445.434 107.632 446.01 106.32 447.162 105.168L461.178 89.904L447.93 75.504C446.778 74.352 446.202 73.04 446.202 71.568C446.202 70.096 446.746 68.848 447.834 67.824C448.922 66.736 450.17 66.192 451.578 66.192C453.114 66.192 454.49 66.832 455.706 68.112L468.474 82.128L481.242 68.112C482.458 66.832 483.834 66.192 485.37 66.192C486.842 66.192 488.09 66.736 489.114 67.824C490.202 68.848 490.746 70.096 490.746 71.568C490.746 73.04 490.17 74.352 489.018 75.504L475.77 89.904L489.882 105.168Z" fill="#06213C"/>
<rect x="35" y="27" width="104" height="84.3158" rx="28" fill="white" stroke="#367FEE" stroke-width="6"/>
<path d="M73.4858 109.504L83.7231 124.129C85.3155 126.404 88.6845 126.404 90.2769 124.129L100.514 109.504C102.37 106.853 100.473 103.211 97.2372 103.211L76.7628 103.211C73.5267 103.211 71.6301 106.853 73.4858 109.504Z" fill="white" stroke="#367FEE" stroke-width="6"/>
<rect x="63.2632" y="92.1579" width="50.9474" height="16.2105" rx="6" fill="white"/>
<rect x="48.2105" y="44.8421" width="59.0526" height="11.5789" rx="5.78947" fill="#367FEE"/>
<rect x="70.2105" y="65.6842" width="59.0526" height="11.5789" rx="5.78947" fill="#367FEE"/>
</g>
<defs>
<clipPath id="clip0">
<rect width="599" height="146" fill="white"/>
</clipPath>
</defs>
</svg>
