<svg width="388" height="122" viewBox="0 0 388 122" fill="none" xmlns="http://www.w3.org/2000/svg">
<g clip-path="url(#clip0)">
<path d="M192 82.24C193.067 83.2533 193.6 84.4 193.6 85.68C193.6 86.9067 193.147 88 192.24 88.96C191.387 89.92 190.373 90.4 189.2 90.4C188.027 90.4 186.933 89.92 185.92 88.96L167.2 72V85.68C167.2 87.2267 166.72 88.4 165.76 89.2C164.8 90 163.6 90.4 162.16 90.4C160.72 90.4 159.52 90 158.56 89.2C157.653 88.4 157.2 87.2267 157.2 85.68V37.92C157.2 36.3733 157.653 35.2 158.56 34.4C159.52 33.6 160.72 33.2 162.16 33.2C163.6 33.2 164.8 33.6 165.76 34.4C166.72 35.2 167.2 36.3733 167.2 37.92V68L184.32 51.6C185.28 50.64 186.373 50.16 187.6 50.16C188.827 50.16 189.893 50.6133 190.8 51.52C191.707 52.4267 192.16 53.4933 192.16 54.72C192.16 55.9467 191.653 57.0667 190.64 58.08L178.08 69.76L192 82.24ZM199.451 90.48C198.011 90.48 196.811 90.08 195.851 89.28C194.944 88.4267 194.491 87.2267 194.491 85.68V54.8C194.491 53.2533 194.944 52.08 195.851 51.28C196.811 50.48 198.011 50.08 199.451 50.08C200.891 50.08 202.091 50.48 203.051 51.28C204.011 52.08 204.491 53.2533 204.491 54.8V85.68C204.491 87.2267 204.011 88.4267 203.051 89.28C202.091 90.08 200.891 90.48 199.451 90.48ZM199.451 42.96C197.637 42.96 196.197 42.48 195.131 41.52C194.064 40.5067 193.531 39.2 193.531 37.6C193.531 36 194.064 34.72 195.131 33.76C196.197 32.8 197.637 32.32 199.451 32.32C201.211 32.32 202.624 32.8 203.691 33.76C204.811 34.72 205.371 36 205.371 37.6C205.371 39.2 204.837 40.5067 203.771 41.52C202.704 42.48 201.264 42.96 199.451 42.96ZM231.923 49.92C236.616 49.92 240.11 51.2533 242.403 53.92C244.696 56.5867 245.843 60.6133 245.843 66V85.68C245.843 87.1733 245.39 88.3467 244.483 89.2C243.63 90.0533 242.43 90.48 240.883 90.48C239.336 90.48 238.11 90.0533 237.203 89.2C236.296 88.3467 235.843 87.1733 235.843 85.68V66.56C235.843 63.52 235.256 61.3067 234.083 59.92C232.963 58.5333 231.176 57.84 228.723 57.84C225.843 57.84 223.523 58.7467 221.763 60.56C220.056 62.3733 219.203 64.8 219.203 67.84V85.68C219.203 87.1733 218.75 88.3467 217.843 89.2C216.936 90.0533 215.71 90.48 214.163 90.48C212.616 90.48 211.39 90.0533 210.483 89.2C209.63 88.3467 209.203 87.1733 209.203 85.68V54.72C209.203 53.3333 209.656 52.2133 210.563 51.36C211.47 50.5067 212.696 50.08 214.243 50.08C215.63 50.08 216.75 50.5067 217.603 51.36C218.51 52.16 218.963 53.2267 218.963 54.56V56.72C220.296 54.5333 222.083 52.8533 224.323 51.68C226.563 50.5067 229.096 49.92 231.923 49.92ZM272.88 49.92C276.293 49.92 279.307 50.7467 281.92 52.4C284.533 54.0533 286.56 56.4 288 59.44C289.493 62.48 290.24 66.0267 290.24 70.08C290.24 74.1333 289.493 77.7333 288 80.88C286.56 83.9733 284.507 86.3733 281.84 88.08C279.227 89.7867 276.24 90.64 272.88 90.64C270.053 90.64 267.52 90.0267 265.28 88.8C263.093 87.5733 261.413 85.8667 260.24 83.68V85.68C260.24 87.12 259.787 88.2667 258.88 89.12C257.973 89.9733 256.773 90.4 255.28 90.4C253.787 90.4 252.587 89.9733 251.68 89.12C250.827 88.2667 250.4 87.12 250.4 85.68V37.84C250.4 36.4533 250.853 35.3333 251.76 34.48C252.72 33.6267 253.947 33.2 255.44 33.2C256.933 33.2 258.133 33.6 259.04 34.4C259.947 35.2 260.4 36.2933 260.4 37.68V56.56C261.573 54.4267 263.253 52.8 265.44 51.68C267.627 50.5067 270.107 49.92 272.88 49.92ZM270.24 82.88C273.387 82.88 275.84 81.76 277.6 79.52C279.36 77.28 280.24 74.1333 280.24 70.08C280.24 66.08 279.36 63.0133 277.6 60.88C275.893 58.7467 273.44 57.68 270.24 57.68C267.04 57.68 264.56 58.7733 262.8 60.96C261.093 63.0933 260.24 66.1867 260.24 70.24C260.24 74.2933 261.093 77.4133 262.8 79.6C264.56 81.7867 267.04 82.88 270.24 82.88ZM310.687 90.64C306.687 90.64 303.167 89.8133 300.127 88.16C297.14 86.5067 294.82 84.1333 293.167 81.04C291.514 77.9467 290.687 74.3467 290.687 70.24C290.687 66.1333 291.514 62.56 293.167 59.52C294.82 56.4267 297.14 54.0533 300.127 52.4C303.167 50.7467 306.687 49.92 310.687 49.92C314.687 49.92 318.18 50.7467 321.167 52.4C324.207 54.0533 326.527 56.4267 328.127 59.52C329.78 62.56 330.607 66.1333 330.607 70.24C330.607 74.3467 329.78 77.9467 328.127 81.04C326.527 84.1333 324.207 86.5067 321.167 88.16C318.18 89.8133 314.687 90.64 310.687 90.64ZM310.607 82.88C313.86 82.88 316.34 81.8133 318.047 79.68C319.754 77.5467 320.607 74.4 320.607 70.24C320.607 66.1333 319.754 63.0133 318.047 60.88C316.34 58.6933 313.887 57.6 310.687 57.6C307.487 57.6 305.007 58.6933 303.247 60.88C301.54 63.0133 300.687 66.1333 300.687 70.24C300.687 74.4 301.54 77.5467 303.247 79.68C304.954 81.8133 307.407 82.88 310.607 82.88ZM366.401 82.64C367.361 83.6 367.841 84.6933 367.841 85.92C367.841 87.0933 367.388 88.16 366.481 89.12C365.575 90.0267 364.508 90.48 363.281 90.48C361.948 90.48 360.801 89.92 359.841 88.8L348.561 76.32L337.281 88.8C336.268 89.8667 335.121 90.4 333.841 90.4C332.668 90.4 331.628 89.9467 330.721 89.04C329.815 88.1333 329.361 87.0933 329.361 85.92C329.361 84.6933 329.841 83.6 330.801 82.64L342.481 69.92L331.441 57.92C330.481 56.96 330.001 55.8667 330.001 54.64C330.001 53.4133 330.455 52.3733 331.361 51.52C332.268 50.6133 333.308 50.16 334.481 50.16C335.761 50.16 336.908 50.6933 337.921 51.76L348.561 63.44L359.201 51.76C360.215 50.6933 361.361 50.16 362.641 50.16C363.868 50.16 364.908 50.6133 365.761 51.52C366.668 52.3733 367.121 53.4133 367.121 54.64C367.121 55.8667 366.641 56.96 365.681 57.92L354.641 69.92L366.401 82.64Z" fill="#316FEA"/>
<ellipse cx="60.2802" cy="61.3934" rx="67.6503" ry="51.6214" transform="rotate(-45.2862 60.2802 61.3934)" fill="#2757B3" fill-opacity="0.15"/>
<ellipse cx="67.5" cy="64.5" rx="48.5" ry="45.5" fill="#316FEA"/>
<path d="M28.1861 67.4451C28.7271 64.0621 32.9931 62.8803 35.1977 65.5027L59.7285 94.6819C61.603 96.9116 60.5418 100.333 57.7346 101.111L27.1841 109.574C24.3769 110.352 21.7065 107.964 22.1664 105.087L28.1861 67.4451Z" fill="#316FEA"/>
<circle cx="46" cy="66" r="8" fill="white"/>
<circle cx="68" cy="66" r="8" fill="white"/>
<circle cx="90" cy="66" r="8" fill="white"/>
<ellipse cx="60.2802" cy="61.3934" rx="67.6503" ry="51.6214" transform="rotate(-45.2862 60.2802 61.3934)" fill="#E7EFFF"/>
<ellipse cx="67.5" cy="64.5" rx="48.5" ry="45.5" fill="#316FEA"/>
<path d="M28.1861 67.4451C28.7271 64.0621 32.9931 62.8803 35.1977 65.5027L59.7285 94.6819C61.603 96.9116 60.5418 100.333 57.7346 101.111L27.1841 109.574C24.3769 110.352 21.7065 107.964 22.1664 105.087L28.1861 67.4451Z" fill="#316FEA"/>
<circle cx="46" cy="66" r="8" fill="white"/>
<circle cx="68" cy="66" r="8" fill="white"/>
<circle cx="90" cy="66" r="8" fill="white"/>
</g>
<defs>
<clipPath id="clip0">
<rect width="388" height="122" fill="white"/>
</clipPath>
</defs>
</svg>
